<?xml version="1.0" encoding="utf-8"?>
<!-- Generator: Adobe Illustrator 27.0.0, SVG Export Plug-In . SVG Version: 6.00 Build 0)  -->
<svg version="1.1" id="Layer_1" xmlns="http://www.w3.org/2000/svg" xmlns:xlink="http://www.w3.org/1999/xlink" x="0px" y="0px"
	 viewBox="0 0 792 612" enable-background="new 0 0 792 612" xml:space="preserve">
<g>
	<g>
		<path fill="#5C5C5C" d="M119.47,590h-15.3H79.61H77.2c-8.32,0-14.83-1.11-19.52-3.32c-4.7-2.21-8.18-4.93-10.46-8.15
			c-2.28-3.22-3.72-6.71-4.33-10.47c-0.6-3.76-0.9-7.24-0.9-10.47v-29.18v-30.19v-28.78c0-3.09,0.3-6.51,0.9-10.26
			c0.61-3.76,2.05-7.28,4.33-10.57c2.28-3.29,5.7-6.04,10.26-8.25c4.56-2.22,10.8-3.32,18.72-3.32h54.55l-12.08,27.77h-32
			c-2.28,0-4.03,0.13-5.23,0.4s-2.11,0.8-2.72,1.61c-0.6,0.8-0.94,1.98-1,3.52c-0.07,1.54-0.1,3.66-0.1,6.34v73.66
			c0,2.82,0.07,5.03,0.2,6.64c0.13,1.61,0.57,2.82,1.31,3.62c0.73,0.8,1.87,1.28,3.42,1.41c1.54,0.13,3.79,0.2,6.74,0.2h42.27
			L119.47,590z"/>
		<path fill="#5C5C5C" d="M234.18,518.35V590h-30.19v-70.04c0-3.62-0.67-6.41-2.01-8.35c-1.34-1.94-3.02-3.32-5.03-4.13
			c-2.01-0.81-4.26-1.27-6.74-1.41c-2.48-0.13-4.93-0.2-7.35-0.2h-7.45V590h-29.99V437.04h29.99v42.06h7.45
			c8.59,0,16.03,1.04,22.34,3.12c6.31,2.08,11.58,4.86,15.8,8.35c4.23,3.49,7.41,7.65,9.56,12.48c2.14,4.83,3.28,9.93,3.42,15.3
			H234.18z"/>
		<path fill="#5C5C5C" d="M266.39,467.03c-4.43,0-8.19-1.58-11.27-4.73c-3.09-3.15-4.63-6.87-4.63-11.17
			c0-4.43,1.54-8.22,4.63-11.37c3.08-3.15,6.84-4.73,11.27-4.73s8.22,1.58,11.37,4.73c3.15,3.15,4.73,6.94,4.73,11.37
			c0,4.3-1.58,8.02-4.73,11.17C274.61,465.45,270.82,467.03,266.39,467.03z M251.49,479.3h29.99V590h-29.99V479.3z"/>
		<path fill="#5C5C5C" d="M331.8,506.48v42.47c0,3.36,0.71,6.01,2.11,7.95c1.41,1.95,3.09,3.46,5.03,4.53
			c1.94,1.08,4.02,1.78,6.24,2.11c2.22,0.34,4.13,0.5,5.74,0.5c2.42,0,4.16-0.2,5.23-0.6v26.77c-0.67,0.4-1.55,0.64-2.62,0.7
			c-1.08,0.07-2.28,0.1-3.62,0.1c-8.32,0-15.53-1.17-21.63-3.52c-6.11-2.35-11.14-5.46-15.1-9.36c-3.96-3.89-6.88-8.35-8.75-13.39
			c-1.88-5.03-2.82-10.3-2.82-15.8v-111.9h30.19v42.27h26.77l-13.69,27.17H331.8z"/>
		<path fill="#5C5C5C" d="M455.78,590h-15.3h-24.56h-2.42c-8.32,0-14.83-1.11-19.52-3.32c-4.7-2.21-8.18-4.93-10.46-8.15
			c-2.28-3.22-3.72-6.71-4.33-10.47c-0.6-3.76-0.9-7.24-0.9-10.47v-29.18v-30.19v-28.78c0-3.09,0.3-6.51,0.9-10.26
			c0.61-3.76,2.05-7.28,4.33-10.57c2.28-3.29,5.7-6.04,10.26-8.25c4.56-2.22,10.8-3.32,18.72-3.32h54.55l-12.08,27.77h-32
			c-2.28,0-4.03,0.13-5.23,0.4s-2.11,0.8-2.72,1.61c-0.6,0.8-0.94,1.98-1,3.52c-0.07,1.54-0.1,3.66-0.1,6.34v73.66
			c0,2.82,0.07,5.03,0.2,6.64c0.13,1.61,0.57,2.82,1.31,3.62c0.73,0.8,1.87,1.28,3.42,1.41c1.54,0.13,3.79,0.2,6.74,0.2h42.27
			L455.78,590z"/>
		<path fill="#5C5C5C" d="M570.5,518.35V590H540.3v-70.04c0-3.62-0.67-6.41-2.01-8.35c-1.34-1.94-3.02-3.32-5.03-4.13
			c-2.01-0.81-4.26-1.27-6.74-1.41c-2.48-0.13-4.93-0.2-7.35-0.2h-7.45V590h-29.99V437.04h29.99v42.06h7.45
			c8.59,0,16.03,1.04,22.34,3.12c6.31,2.08,11.58,4.86,15.8,8.35c4.23,3.49,7.41,7.65,9.56,12.48c2.14,4.83,3.28,9.93,3.42,15.3
			H570.5z"/>
		<path fill="#5C5C5C" d="M674.95,582.55c-4.56,2.42-9.46,4.26-14.69,5.53c-5.23,1.28-10.2,2.25-14.89,2.92
			c-5.37,0.67-10.74,1.07-16.1,1.21c-8.05,0-14.93-0.94-20.63-2.82c-5.7-1.88-10.4-4.46-14.09-7.75c-3.69-3.29-6.41-7.21-8.15-11.77
			c-1.75-4.56-2.62-9.53-2.62-14.89c0-5.64,1.11-10.43,3.32-14.39c2.22-3.96,5.13-7.21,8.76-9.76c3.62-2.55,7.78-4.43,12.48-5.64
			c4.7-1.21,9.59-1.81,14.69-1.81c4.16,0,8.32,0.4,12.48,1.21c4.16,0.81,8.18,2.01,12.08,3.62v-12.48c0-6.71-1.28-11.47-3.82-14.29
			c-2.55-2.82-7.11-4.23-13.68-4.23c-3.89,0-6.98,0.57-9.26,1.71c-2.28,1.14-4.03,2.55-5.23,4.23c-1.21,1.68-1.98,3.46-2.32,5.33
			c-0.33,1.88-0.5,3.56-0.5,5.03H587.2c0-4.69,0.84-9.29,2.51-13.79c1.68-4.49,4.23-8.48,7.65-11.97c3.42-3.49,7.75-6.31,12.98-8.45
			c5.23-2.15,11.4-3.22,18.52-3.22c8.45,0,15.6,0.87,21.43,2.62c5.84,1.75,10.57,4.3,14.19,7.65c3.62,3.36,6.27,7.48,7.95,12.38
			c1.68,4.9,2.52,10.5,2.52,16.81V582.55z M647.58,550.96c-1.88-1.34-4.63-2.62-8.25-3.82c-3.62-1.21-7.98-1.81-13.08-1.81
			c-4.3,0-8.05,0.74-11.27,2.22c-3.22,1.48-4.83,3.96-4.83,7.45c0,3.09,0.57,5.64,1.71,7.65c1.14,2.01,2.62,3.62,4.43,4.83
			c1.81,1.21,3.92,2.08,6.34,2.62c2.42,0.54,4.9,0.8,7.45,0.8c3.08,0,6.17-0.27,9.26-0.8c3.09-0.53,5.84-1.27,8.25-2.21V550.96z"/>
		<path fill="#5C5C5C" d="M723.25,506.48v42.47c0,3.36,0.71,6.01,2.11,7.95c1.41,1.95,3.09,3.46,5.03,4.53
			c1.94,1.08,4.02,1.78,6.24,2.11c2.22,0.34,4.13,0.5,5.74,0.5c2.42,0,4.16-0.2,5.23-0.6v26.77c-0.67,0.4-1.54,0.64-2.62,0.7
			c-1.08,0.07-2.28,0.1-3.62,0.1c-8.32,0-15.53-1.17-21.63-3.52c-6.11-2.35-11.14-5.46-15.1-9.36c-3.96-3.89-6.88-8.35-8.75-13.39
			c-1.88-5.03-2.82-10.3-2.82-15.8v-111.9h30.19v42.27h26.77l-13.69,27.17H723.25z"/>
	</g>
	<g>
		<linearGradient id="SVGID_1_" gradientUnits="userSpaceOnUse" x1="329.9534" y1="252.2318" x2="339.0078" y2="14.5549">
			<stop  offset="0" style="stop-color:#8D2DF0"/>
			<stop  offset="0.2644" style="stop-color:#AE3BF2"/>
			<stop  offset="0.5606" style="stop-color:#CB47F4"/>
			<stop  offset="0.8152" style="stop-color:#DE4EF6"/>
			<stop  offset="0.9972" style="stop-color:#E451F6"/>
			<stop  offset="0.9977" style="stop-color:#E759F6"/>
			<stop  offset="0.999" style="stop-color:#ED69F5"/>
			<stop  offset="1" style="stop-color:#EF6FF5"/>
		</linearGradient>
		<path fill="url(#SVGID_1_)" d="M378.38,242.58c-16.71-4.99-30.27-17.22-37.04-33.1c-2.91-6.97-4.59-14.65-4.59-22.77
			c0-5.83,0.89-11.43,2.46-16.71c-0.66-31.01,12.58-89.79,102.87-150.21H425.9h-43.25c-14.92,0-29.3,2.3-42.9,6.44
			c-1.15,0.35-2.21,0.79-3.35,1.15c-15.36,5.21-29.48,12.89-42.02,22.6c-1.15,0.88-2.3,1.77-3.44,2.74
			c-29.1,22.55-50.56,54.37-60.13,91.04C290.31,230.5,347.84,243.23,378.38,242.58z"/>
		
			<linearGradient id="SVGID_00000101097256843455804690000017906161058259934345_" gradientUnits="userSpaceOnUse" x1="419.4258" y1="22.8234" x2="505.118" y2="206.9345">
			<stop  offset="0" style="stop-color:#8D2DF0"/>
			<stop  offset="0.2644" style="stop-color:#AE3BF2"/>
			<stop  offset="0.5606" style="stop-color:#CB47F4"/>
			<stop  offset="0.8152" style="stop-color:#DE4EF6"/>
			<stop  offset="0.9972" style="stop-color:#E451F6"/>
			<stop  offset="0.9977" style="stop-color:#E759F6"/>
			<stop  offset="0.999" style="stop-color:#ED69F5"/>
			<stop  offset="1" style="stop-color:#EF6FF5"/>
		</linearGradient>
		<path fill="url(#SVGID_00000101097256843455804690000017906161058259934345_)" d="M442.08,19.79
			C351.8,80.2,338.56,138.99,339.21,170c0.61-2.07,1.31-4.1,2.13-6.07c8.92-20.92,29.57-35.57,53.76-35.57
			c5.86,0,11.5,0.89,16.83,2.49c16.45,4.95,29.84,16.95,36.66,32.55c13.31-1.15,26.14-3.97,38.08-8.68
			c25.33-10,45.72-23.75,58.9-48.42c12.89-24.13,19.8-52.28,21-79.55c0.1-2.32,0.16-4.64,0.16-6.96H442.08z"/>
		
			<linearGradient id="SVGID_00000105406375918566957030000017020910794217891220_" gradientUnits="userSpaceOnUse" x1="412.2689" y1="162.8079" x2="219.8638" y2="297.4914">
			<stop  offset="0" style="stop-color:#8D2DF0"/>
			<stop  offset="0.2644" style="stop-color:#AE3BF2"/>
			<stop  offset="0.5606" style="stop-color:#CB47F4"/>
			<stop  offset="0.8152" style="stop-color:#DE4EF6"/>
			<stop  offset="0.9972" style="stop-color:#E451F6"/>
			<stop  offset="0.9977" style="stop-color:#E759F6"/>
			<stop  offset="0.999" style="stop-color:#ED69F5"/>
			<stop  offset="1" style="stop-color:#EF6FF5"/>
		</linearGradient>
		<path fill="url(#SVGID_00000105406375918566957030000017020910794217891220_)" d="M450.88,210.3c-0.77-0.08-1.51-0.24-2.29-0.3
			h-0.09c-8.92,20.66-29.48,35.04-53.4,35.04c-5.82,0-11.42-0.89-16.72-2.47c-30.54,0.65-88.07-12.07-147.57-98.83
			c-3.58,13.72-5.54,28.1-5.54,42.96c0,56.4,27.54,106.45,69.91,137.34c0,0,0,0,0.09,0c11.39,8.74,24.1,15.8,37.87,20.83
			c0.35,0.18,0.79,0.27,1.24,0.44c6,2.14,12.22,3.77,18.55,5.1C432.79,295.37,449.43,242.03,450.88,210.3z"/>
		
			<linearGradient id="SVGID_00000071555509826159782730000014623357791209133997_" gradientUnits="userSpaceOnUse" x1="232.7453" y1="281.96" x2="566.722" y2="281.96">
			<stop  offset="0" style="stop-color:#8D2DF0"/>
			<stop  offset="0.2644" style="stop-color:#AE3BF2"/>
			<stop  offset="0.5606" style="stop-color:#CB47F4"/>
			<stop  offset="0.8152" style="stop-color:#DE4EF6"/>
			<stop  offset="0.9972" style="stop-color:#E451F6"/>
			<stop  offset="0.9977" style="stop-color:#E759F6"/>
			<stop  offset="0.999" style="stop-color:#ED69F5"/>
			<stop  offset="1" style="stop-color:#EF6FF5"/>
		</linearGradient>
		<path fill="url(#SVGID_00000071555509826159782730000014623357791209133997_)" d="M524.53,251.75
			c-22.79-22.78-39.81-37.98-73.65-41.45c-1.45,31.72-18.09,85.06-97.96,140.11c9.6,2.02,19.52,3.2,29.73,3.2h43.69h140.38
			c0-34.69-12.27-66.55-32.84-91.44C530.97,258.55,527.79,255.02,524.53,251.75z"/>
		
			<linearGradient id="SVGID_00000076581958022075874420000017050981876504131741_" gradientUnits="userSpaceOnUse" x1="353.6761" y1="186.717" x2="436.4885" y2="186.717">
			<stop  offset="0" style="stop-color:#8D2DF0"/>
			<stop  offset="0.2644" style="stop-color:#AE3BF2"/>
			<stop  offset="0.5606" style="stop-color:#CB47F4"/>
			<stop  offset="0.8152" style="stop-color:#DE4EF6"/>
			<stop  offset="0.9972" style="stop-color:#E451F6"/>
			<stop  offset="0.9977" style="stop-color:#E759F6"/>
			<stop  offset="0.999" style="stop-color:#ED69F5"/>
			<stop  offset="1" style="stop-color:#EF6FF5"/>
		</linearGradient>
		<path fill="url(#SVGID_00000076581958022075874420000017050981876504131741_)" d="M395.08,145.31
			c-22.87,0-41.41,18.54-41.41,41.41c0,22.87,18.54,41.41,41.41,41.41c22.87,0,41.41-18.54,41.41-41.41
			C436.49,163.85,417.95,145.31,395.08,145.31z M395.08,203.42c-9.25,0-16.74-7.49-16.74-16.7c0-9.25,7.49-16.74,16.74-16.74
			c9.21,0,16.7,7.49,16.7,16.74C411.78,195.93,404.3,203.42,395.08,203.42z"/>
	</g>
</g>
</svg>
