<?xml version="1.0" encoding="utf-8"?>
<!-- Generator: Adobe Illustrator 27.0.0, SVG Export Plug-In . SVG Version: 6.00 Build 0)  -->
<svg version="1.1" id="Layer_1" xmlns="http://www.w3.org/2000/svg" xmlns:xlink="http://www.w3.org/1999/xlink" x="0px" y="0px"
	 viewBox="0 0 792 612" enable-background="new 0 0 792 612" xml:space="preserve">
<g>
	<g>
		<path fill="#5C5C5C" d="M313.61,362.2h-11.25h-18.07h-1.78c-6.12,0-10.91-0.81-14.37-2.44c-3.46-1.63-6.02-3.63-7.7-6
			c-1.68-2.37-2.74-4.93-3.18-7.7c-0.45-2.76-0.67-5.33-0.67-7.7v-21.47v-22.22v-21.18c0-2.27,0.22-4.79,0.67-7.55
			c0.44-2.76,1.5-5.36,3.18-7.78c1.68-2.42,4.2-4.44,7.56-6.07s7.95-2.44,13.77-2.44h40.13l-8.89,20.44h-23.54
			c-1.68,0-2.96,0.1-3.85,0.29c-0.89,0.2-1.56,0.59-2,1.19c-0.45,0.59-0.7,1.46-0.74,2.59c-0.05,1.14-0.08,2.69-0.08,4.66v54.2
			c0,2.07,0.05,3.7,0.15,4.89c0.09,1.19,0.42,2.07,0.96,2.67c0.54,0.59,1.38,0.94,2.52,1.04c1.13,0.1,2.79,0.15,4.96,0.15h31.1
			L313.61,362.2z"/>
		<path fill="#5C5C5C" d="M398.03,309.48v52.72h-22.22v-51.54c0-2.67-0.49-4.71-1.48-6.15c-0.99-1.43-2.22-2.44-3.7-3.04
			s-3.14-0.94-4.96-1.04c-1.83-0.1-3.63-0.15-5.41-0.15h-5.48v61.9h-22.07V249.65h22.07v30.95h5.48c6.32,0,11.8,0.76,16.44,2.3
			c4.64,1.53,8.52,3.58,11.63,6.14c3.11,2.57,5.45,5.63,7.04,9.18c1.58,3.55,2.42,7.31,2.52,11.25H398.03z"/>
		<path fill="#5C5C5C" d="M421.72,271.71c-3.26,0-6.02-1.16-8.3-3.48c-2.27-2.32-3.41-5.06-3.41-8.22c0-3.26,1.14-6.05,3.41-8.37
			c2.27-2.32,5.04-3.48,8.3-3.48s6.05,1.16,8.37,3.48c2.32,2.32,3.48,5.11,3.48,8.37c0,3.16-1.16,5.9-3.48,8.22
			C427.76,270.55,424.98,271.71,421.72,271.71z M410.76,280.75h22.07v81.45h-22.07V280.75z"/>
		<path fill="#5C5C5C" d="M469.85,300.74v31.25c0,2.47,0.52,4.42,1.55,5.85c1.04,1.43,2.27,2.54,3.7,3.33
			c1.43,0.79,2.96,1.31,4.59,1.56c1.63,0.25,3.04,0.37,4.22,0.37c1.78,0,3.06-0.15,3.85-0.45v19.7c-0.49,0.3-1.14,0.47-1.93,0.52
			c-0.79,0.05-1.68,0.07-2.67,0.07c-6.12,0-11.43-0.86-15.92-2.59c-4.49-1.73-8.2-4.02-11.11-6.89c-2.91-2.86-5.06-6.14-6.44-9.85
			c-1.38-3.7-2.07-7.58-2.07-11.62v-82.34h22.22v31.1h19.7l-10.07,19.99H469.85z"/>
		<path fill="#5C5C5C" d="M561.08,362.2h-11.25h-18.07h-1.78c-6.12,0-10.91-0.81-14.37-2.44c-3.46-1.63-6.02-3.63-7.7-6
			c-1.68-2.37-2.74-4.93-3.18-7.7c-0.45-2.76-0.67-5.33-0.67-7.7v-21.47v-22.22v-21.18c0-2.27,0.22-4.79,0.67-7.55
			c0.44-2.76,1.5-5.36,3.18-7.78c1.68-2.42,4.2-4.44,7.56-6.07s7.95-2.44,13.77-2.44h40.13l-8.89,20.44h-23.54
			c-1.68,0-2.96,0.1-3.85,0.29c-0.89,0.2-1.56,0.59-2,1.19c-0.45,0.59-0.7,1.46-0.74,2.59c-0.05,1.14-0.08,2.69-0.08,4.66v54.2
			c0,2.07,0.05,3.7,0.15,4.89c0.09,1.19,0.42,2.07,0.96,2.67c0.54,0.59,1.38,0.94,2.52,1.04c1.13,0.1,2.79,0.15,4.96,0.15h31.1
			L561.08,362.2z"/>
		<path fill="#5C5C5C" d="M645.5,309.48v52.72h-22.22v-51.54c0-2.67-0.49-4.71-1.48-6.15c-0.99-1.43-2.22-2.44-3.7-3.04
			c-1.48-0.59-3.14-0.94-4.96-1.04c-1.83-0.1-3.63-0.15-5.41-0.15h-5.48v61.9h-22.07V249.65h22.07v30.95h5.48
			c6.32,0,11.8,0.76,16.44,2.3c4.64,1.53,8.52,3.58,11.63,6.14c3.11,2.57,5.45,5.63,7.04,9.18c1.58,3.55,2.42,7.31,2.52,11.25H645.5
			z"/>
		<path fill="#5C5C5C" d="M722.36,356.72c-3.36,1.78-6.96,3.14-10.81,4.07c-3.85,0.94-7.51,1.65-10.96,2.15
			c-3.95,0.49-7.9,0.79-11.85,0.89c-5.92,0-10.99-0.69-15.18-2.07c-4.2-1.38-7.65-3.28-10.37-5.7c-2.72-2.42-4.72-5.3-6-8.66
			c-1.28-3.36-1.93-7.01-1.93-10.96c0-4.15,0.81-7.68,2.44-10.59c1.63-2.91,3.77-5.3,6.44-7.18c2.67-1.87,5.73-3.26,9.18-4.15
			s7.06-1.33,10.81-1.33c3.06,0,6.12,0.3,9.18,0.89c3.06,0.59,6.02,1.48,8.88,2.67v-9.18c0-4.94-0.94-8.44-2.81-10.51
			c-1.88-2.07-5.23-3.11-10.07-3.11c-2.87,0-5.13,0.42-6.82,1.26c-1.68,0.84-2.96,1.88-3.85,3.11c-0.89,1.24-1.46,2.54-1.7,3.92
			c-0.25,1.38-0.37,2.62-0.37,3.7h-18.81c0-3.45,0.61-6.84,1.85-10.14c1.23-3.31,3.11-6.24,5.63-8.81c2.52-2.57,5.7-4.64,9.55-6.22
			c3.85-1.58,8.39-2.37,13.62-2.37c6.22,0,11.48,0.64,15.77,1.93c4.3,1.28,7.78,3.16,10.44,5.63c2.67,2.47,4.62,5.5,5.85,9.11
			c1.23,3.6,1.85,7.72,1.85,12.36V356.72z M702.21,333.47c-1.38-0.99-3.41-1.93-6.07-2.81c-2.67-0.89-5.87-1.33-9.63-1.33
			c-3.16,0-5.92,0.54-8.29,1.63c-2.37,1.09-3.56,2.91-3.56,5.48c0,2.27,0.42,4.15,1.26,5.63c0.84,1.48,1.93,2.67,3.26,3.55
			c1.33,0.89,2.89,1.53,4.66,1.93c1.78,0.4,3.61,0.59,5.48,0.59c2.27,0,4.54-0.2,6.81-0.59c2.27-0.39,4.3-0.94,6.07-1.63V333.47z"/>
		<path fill="#5C5C5C" d="M757.9,300.74v31.25c0,2.47,0.52,4.42,1.55,5.85c1.04,1.43,2.27,2.54,3.7,3.33
			c1.43,0.79,2.96,1.31,4.59,1.56c1.63,0.25,3.04,0.37,4.22,0.37c1.78,0,3.06-0.15,3.85-0.45v19.7c-0.49,0.3-1.14,0.47-1.93,0.52
			c-0.79,0.05-1.68,0.07-2.67,0.07c-6.12,0-11.43-0.86-15.92-2.59c-4.49-1.73-8.2-4.02-11.11-6.89c-2.91-2.86-5.06-6.14-6.44-9.85
			c-1.38-3.7-2.07-7.58-2.07-11.62v-82.34h22.22v31.1h19.7l-10.07,19.99H757.9z"/>
	</g>
	<g>
		<linearGradient id="SVGID_1_" gradientUnits="userSpaceOnUse" x1="71.8539" y1="341.9633" x2="76.8229" y2="211.5275">
			<stop  offset="0" style="stop-color:#8D2DF0"/>
			<stop  offset="0.2644" style="stop-color:#AE3BF2"/>
			<stop  offset="0.5606" style="stop-color:#CB47F4"/>
			<stop  offset="0.8152" style="stop-color:#DE4EF6"/>
			<stop  offset="0.9972" style="stop-color:#E451F6"/>
			<stop  offset="0.9977" style="stop-color:#E759F6"/>
			<stop  offset="0.999" style="stop-color:#ED69F5"/>
			<stop  offset="1" style="stop-color:#EF6FF5"/>
		</linearGradient>
		<path fill="url(#SVGID_1_)" d="M98.43,336.66c-9.17-2.74-16.61-9.45-20.33-18.17c-1.6-3.83-2.52-8.04-2.52-12.5
			c0-3.2,0.49-6.27,1.35-9.17c-0.36-17.02,6.9-49.28,56.45-82.43h-8.88h-23.74c-8.19,0-16.08,1.26-23.54,3.54
			c-0.63,0.19-1.21,0.44-1.84,0.63c-8.43,2.86-16.18,7.07-23.06,12.4c-0.63,0.48-1.26,0.97-1.89,1.5
			c-15.97,12.37-27.75,29.84-33,49.96C50.1,330.04,81.67,337.02,98.43,336.66z"/>
		
			<linearGradient id="SVGID_00000143597288095862263100000000797286202515063212_" gradientUnits="userSpaceOnUse" x1="120.9558" y1="216.0652" x2="167.9833" y2="317.1044">
			<stop  offset="0" style="stop-color:#8D2DF0"/>
			<stop  offset="0.2644" style="stop-color:#AE3BF2"/>
			<stop  offset="0.5606" style="stop-color:#CB47F4"/>
			<stop  offset="0.8152" style="stop-color:#DE4EF6"/>
			<stop  offset="0.9972" style="stop-color:#E451F6"/>
			<stop  offset="0.9977" style="stop-color:#E759F6"/>
			<stop  offset="0.999" style="stop-color:#ED69F5"/>
			<stop  offset="1" style="stop-color:#EF6FF5"/>
		</linearGradient>
		<path fill="url(#SVGID_00000143597288095862263100000000797286202515063212_)" d="M133.39,214.4
			c-49.55,33.16-56.81,65.42-56.45,82.43c0.34-1.14,0.72-2.25,1.17-3.33c4.89-11.48,16.23-19.52,29.5-19.52
			c3.21,0,6.31,0.49,9.24,1.37c9.03,2.72,16.37,9.3,20.12,17.86c7.3-0.63,14.35-2.18,20.9-4.77c13.9-5.49,25.09-13.04,32.32-26.57
			c7.07-13.24,10.87-28.69,11.52-43.66c0.06-1.27,0.09-2.54,0.09-3.82H133.39z"/>
		
			<linearGradient id="SVGID_00000158025070912101385010000004546733447072722564_" gradientUnits="userSpaceOnUse" x1="117.0282" y1="292.8879" x2="11.4373" y2="366.8016">
			<stop  offset="0" style="stop-color:#8D2DF0"/>
			<stop  offset="0.2644" style="stop-color:#AE3BF2"/>
			<stop  offset="0.5606" style="stop-color:#CB47F4"/>
			<stop  offset="0.8152" style="stop-color:#DE4EF6"/>
			<stop  offset="0.9972" style="stop-color:#E451F6"/>
			<stop  offset="0.9977" style="stop-color:#E759F6"/>
			<stop  offset="0.999" style="stop-color:#ED69F5"/>
			<stop  offset="1" style="stop-color:#EF6FF5"/>
		</linearGradient>
		<path fill="url(#SVGID_00000158025070912101385010000004546733447072722564_)" d="M138.22,318.95c-0.42-0.04-0.83-0.13-1.26-0.17
			h-0.05c-4.89,11.34-16.18,19.23-29.31,19.23c-3.19,0-6.27-0.49-9.17-1.36c-16.76,0.36-48.33-6.63-80.98-54.24
			c-1.96,7.53-3.04,15.42-3.04,23.57c0,30.95,15.11,58.42,38.37,75.37c0,0,0,0,0.05,0c6.25,4.8,13.22,8.67,20.78,11.43
			c0.19,0.1,0.44,0.15,0.68,0.24c3.29,1.17,6.71,2.07,10.18,2.8C128.29,365.64,137.42,336.36,138.22,318.95z"/>
		
			<linearGradient id="SVGID_00000147913888930095368900000001968581084790379681_" gradientUnits="userSpaceOnUse" x1="18.5065" y1="358.278" x2="201.7912" y2="358.278">
			<stop  offset="0" style="stop-color:#8D2DF0"/>
			<stop  offset="0.2644" style="stop-color:#AE3BF2"/>
			<stop  offset="0.5606" style="stop-color:#CB47F4"/>
			<stop  offset="0.8152" style="stop-color:#DE4EF6"/>
			<stop  offset="0.9972" style="stop-color:#E451F6"/>
			<stop  offset="0.9977" style="stop-color:#E759F6"/>
			<stop  offset="0.999" style="stop-color:#ED69F5"/>
			<stop  offset="1" style="stop-color:#EF6FF5"/>
		</linearGradient>
		<path fill="url(#SVGID_00000147913888930095368900000001968581084790379681_)" d="M178.64,341.7
			c-12.5-12.5-21.85-20.84-40.42-22.75c-0.8,17.41-9.93,46.68-53.76,76.89c5.27,1.11,10.71,1.75,16.32,1.75h23.98h77.04
			c0-19.04-6.73-36.52-18.02-50.18C182.17,345.43,180.43,343.49,178.64,341.7z"/>
		
			<linearGradient id="SVGID_00000100342859455585014770000009370281459227536279_" gradientUnits="userSpaceOnUse" x1="84.8761" y1="306.0035" x2="130.298" y2="306.0035">
			<stop  offset="0" style="stop-color:#8D2DF0"/>
			<stop  offset="0.2644" style="stop-color:#AE3BF2"/>
			<stop  offset="0.5606" style="stop-color:#CB47F4"/>
			<stop  offset="0.8152" style="stop-color:#DE4EF6"/>
			<stop  offset="0.9972" style="stop-color:#E451F6"/>
			<stop  offset="0.9977" style="stop-color:#E759F6"/>
			<stop  offset="0.999" style="stop-color:#ED69F5"/>
			<stop  offset="1" style="stop-color:#EF6FF5"/>
		</linearGradient>
		<path fill="url(#SVGID_00000100342859455585014770000009370281459227536279_)" d="M107.61,283.27
			c-12.56,0-22.73,10.17-22.73,22.73s10.17,22.73,22.73,22.73c12.52,0,22.69-10.17,22.69-22.73S120.12,283.27,107.61,283.27z
			 M107.61,315.17c-5.07,0-9.17-4.1-9.17-9.17s4.1-9.17,9.17-9.17c5.07,0,9.17,4.1,9.17,9.17S112.67,315.17,107.61,315.17z"/>
	</g>
</g>
</svg>
