<?xml version="1.0" encoding="utf-8"?>
<!-- Generator: Adobe Illustrator 27.0.0, SVG Export Plug-In . SVG Version: 6.00 Build 0)  -->
<svg version="1.1" id="Layer_1" xmlns="http://www.w3.org/2000/svg" xmlns:xlink="http://www.w3.org/1999/xlink" x="0px" y="0px"
	 viewBox="0 0 792 612" enable-background="new 0 0 792 612" xml:space="preserve">
<g>
	<linearGradient id="SVGID_1_" gradientUnits="userSpaceOnUse" x1="280.5182" y1="420.5874" x2="296.3506" y2="4.989">
		<stop  offset="0" style="stop-color:#8D2DF0"/>
		<stop  offset="0.2644" style="stop-color:#AE3BF2"/>
		<stop  offset="0.5606" style="stop-color:#CB47F4"/>
		<stop  offset="0.8152" style="stop-color:#DE4EF6"/>
		<stop  offset="0.9972" style="stop-color:#E451F6"/>
		<stop  offset="0.9977" style="stop-color:#E759F6"/>
		<stop  offset="0.999" style="stop-color:#ED69F5"/>
		<stop  offset="1" style="stop-color:#EF6FF5"/>
	</linearGradient>
	<path fill="url(#SVGID_1_)" d="M365.2,403.7c-29.23-8.72-52.93-30.1-64.77-57.88c-5.1-12.19-8.03-25.62-8.03-39.82
		c0-10.2,1.56-19.98,4.3-29.21c-1.15-54.22,22-157.01,179.87-262.65H448.3h-75.63c-26.08,0-51.24,4.01-75.01,11.27
		c-2.01,0.62-3.86,1.39-5.86,2.01c-26.86,9.11-51.55,22.54-73.47,39.51c-2,1.54-4.01,3.09-6.02,4.78
		c-50.88,39.42-88.41,95.07-105.14,159.18C211.2,382.59,311.79,404.85,365.2,403.7z"/>
	
		<linearGradient id="SVGID_00000023250217346682857520000004370223520423277206_" gradientUnits="userSpaceOnUse" x1="436.9683" y1="19.4471" x2="586.8085" y2="341.3812">
		<stop  offset="0" style="stop-color:#8D2DF0"/>
		<stop  offset="0.2644" style="stop-color:#AE3BF2"/>
		<stop  offset="0.5606" style="stop-color:#CB47F4"/>
		<stop  offset="0.8152" style="stop-color:#DE4EF6"/>
		<stop  offset="0.9972" style="stop-color:#E451F6"/>
		<stop  offset="0.9977" style="stop-color:#E759F6"/>
		<stop  offset="0.999" style="stop-color:#ED69F5"/>
		<stop  offset="1" style="stop-color:#EF6FF5"/>
	</linearGradient>
	<path fill="url(#SVGID_00000023250217346682857520000004370223520423277206_)" d="M476.58,14.13
		C318.71,119.78,295.57,222.57,296.71,276.79c1.07-3.62,2.29-7.18,3.72-10.61c15.59-36.58,51.7-62.2,94-62.2
		c10.24,0,20.11,1.55,29.43,4.36c28.76,8.66,52.17,29.64,64.1,56.92c23.27-2.02,45.71-6.94,66.59-15.18
		c44.29-17.48,79.94-41.54,102.98-84.67c22.54-42.2,34.62-91.42,36.72-139.1c0.18-4.05,0.27-8.11,0.27-12.16H476.58z"/>
	
		<linearGradient id="SVGID_00000133492379797708455960000015353349443248103553_" gradientUnits="userSpaceOnUse" x1="424.4539" y1="264.222" x2="88.0171" y2="499.7278">
		<stop  offset="0" style="stop-color:#8D2DF0"/>
		<stop  offset="0.2644" style="stop-color:#AE3BF2"/>
		<stop  offset="0.5606" style="stop-color:#CB47F4"/>
		<stop  offset="0.8152" style="stop-color:#DE4EF6"/>
		<stop  offset="0.9972" style="stop-color:#E451F6"/>
		<stop  offset="0.9977" style="stop-color:#E759F6"/>
		<stop  offset="0.999" style="stop-color:#ED69F5"/>
		<stop  offset="1" style="stop-color:#EF6FF5"/>
	</linearGradient>
	<path fill="url(#SVGID_00000133492379797708455960000015353349443248103553_)" d="M491.96,347.27c-1.35-0.14-2.65-0.41-4-0.53
		h-0.15c-15.59,36.12-51.55,61.28-93.38,61.28c-10.18,0-19.97-1.56-29.23-4.32c-53.41,1.14-154-21.11-258.03-172.81
		c-6.26,23.99-9.7,49.14-9.7,75.11c0,98.62,48.16,186.14,122.24,240.16c0,0,0,0,0.15,0c19.91,15.28,42.14,27.63,66.21,36.42
		c0.62,0.31,1.39,0.46,2.16,0.77c10.49,3.74,21.37,6.59,32.44,8.92C460.34,496.02,489.43,402.74,491.96,347.27z"/>
	
		<linearGradient id="SVGID_00000178905638492126634690000002964848848989170874_" gradientUnits="userSpaceOnUse" x1="110.5414" y1="472.5698" x2="694.5285" y2="472.5698">
		<stop  offset="0" style="stop-color:#8D2DF0"/>
		<stop  offset="0.2644" style="stop-color:#AE3BF2"/>
		<stop  offset="0.5606" style="stop-color:#CB47F4"/>
		<stop  offset="0.8152" style="stop-color:#DE4EF6"/>
		<stop  offset="0.9972" style="stop-color:#E451F6"/>
		<stop  offset="0.9977" style="stop-color:#E759F6"/>
		<stop  offset="0.999" style="stop-color:#ED69F5"/>
		<stop  offset="1" style="stop-color:#EF6FF5"/>
	</linearGradient>
	<path fill="url(#SVGID_00000178905638492126634690000002964848848989170874_)" d="M620.75,419.75
		c-39.84-39.84-69.61-66.4-128.79-72.48c-2.53,55.47-31.62,148.74-171.28,245c16.79,3.53,34.13,5.59,51.99,5.59h76.4h245.46
		c0-60.65-21.46-116.37-57.42-159.9C632.02,431.64,626.46,425.46,620.75,419.75z"/>
	
		<linearGradient id="SVGID_00000130633420280558219130000010800867153074287777_" gradientUnits="userSpaceOnUse" x1="321.9994" y1="306.0292" x2="466.8039" y2="306.0292">
		<stop  offset="0" style="stop-color:#8D2DF0"/>
		<stop  offset="0.2644" style="stop-color:#AE3BF2"/>
		<stop  offset="0.5606" style="stop-color:#CB47F4"/>
		<stop  offset="0.8152" style="stop-color:#DE4EF6"/>
		<stop  offset="0.9972" style="stop-color:#E451F6"/>
		<stop  offset="0.9977" style="stop-color:#E759F6"/>
		<stop  offset="0.999" style="stop-color:#ED69F5"/>
		<stop  offset="1" style="stop-color:#EF6FF5"/>
	</linearGradient>
	<path fill="url(#SVGID_00000130633420280558219130000010800867153074287777_)" d="M394.4,233.63c-39.99,0-72.4,32.41-72.4,72.4
		c0,39.99,32.41,72.4,72.4,72.4s72.4-32.41,72.4-72.4C466.8,266.04,434.39,233.63,394.4,233.63z M394.4,335.23
		c-16.18,0-29.27-13.09-29.27-29.2c0-16.18,13.09-29.27,29.27-29.27c16.11,0,29.2,13.09,29.2,29.27
		C423.61,322.14,410.51,335.23,394.4,335.23z"/>
</g>
</svg>
